<?xml version="1.0" encoding="utf-8"?>
<!-- Generator: Adobe Illustrator 16.0.0, SVG Export Plug-In . SVG Version: 6.00 Build 0)  -->
<!DOCTYPE svg PUBLIC "-//W3C//DTD SVG 1.1//EN" "http://www.w3.org/Graphics/SVG/1.1/DTD/svg11.dtd">
<svg version="1.1" id="圖層_1" xmlns="http://www.w3.org/2000/svg" xmlns:xlink="http://www.w3.org/1999/xlink" x="0px" y="0px"
	 width="424px" height="136px" viewBox="0 0 424 136" enable-background="new 0 0 424 136" xml:space="preserve">
<g>
	<g>
		<path fill="#D5D5D5" d="M152.069,90.354c2.721,0,4.354,1.515,4.354,4.06c0,2.53-1.574,4.045-4.207,4.045h-2.133v3.516h-2.736
			v-11.62H152.069z M151.658,95.987c1.265,0,1.971-0.56,1.971-1.574s-0.706-1.589-1.971-1.589h-1.574v3.163H151.658z"/>
		<path fill="#D5D5D5" d="M164.675,101.974l-2.03-3.897h-1.574v3.897h-2.736v-11.62h4.692c2.618,0,4.251,1.441,4.251,3.854
			c0,1.633-0.706,2.81-1.927,3.413l2.53,4.354H164.675z M161.071,92.824v2.766h1.559c1.133,0,1.854-0.441,1.854-1.383
			s-0.721-1.383-1.854-1.383H161.071z"/>
		<path fill="#D5D5D5" d="M168.867,96.164c0-3.781,2.118-6.017,5.501-6.017s5.501,2.235,5.501,6.017c0,3.78-2.118,6.016-5.501,6.016
			S168.867,99.944,168.867,96.164z M177.075,96.164c0-2.207-1.044-3.457-2.707-3.457s-2.707,1.25-2.707,3.457
			c0,2.206,1.044,3.456,2.707,3.456S177.075,98.37,177.075,96.164z"/>
		<path fill="#D5D5D5" d="M184.532,101.974h-2.736v-11.62h7.781v2.56h-5.045v2.31h4.692v2.559h-4.692V101.974z"/>
		<path fill="#D5D5D5" d="M194.151,99.503h5.34v2.471h-8.076v-11.62h7.899v2.471h-5.163v2.03h4.884v2.472h-4.884V99.503z"/>
		<path fill="#D5D5D5" d="M200.697,99.459l2.133-1.428c0.588,1.192,1.485,1.678,2.544,1.678c1.133,0,1.824-0.397,1.824-1.016
			c0-0.632-0.412-0.927-2.163-1.397c-1.603-0.44-3.971-1.044-3.971-3.574c0-2.089,1.971-3.574,4.472-3.574
			c2.28,0,3.736,1.206,4.369,2.574l-2.045,1.368c-0.515-0.941-1.382-1.471-2.354-1.471c-0.912,0-1.647,0.44-1.647,1.059
			c0,0.588,0.427,0.854,2.177,1.324c1.604,0.411,3.957,1,3.957,3.545c0,2.206-1.927,3.633-4.634,3.633
			C203.051,102.18,201.433,101.062,200.697,99.459z"/>
		<path fill="#D5D5D5" d="M211.214,99.459l2.133-1.428c0.588,1.192,1.485,1.678,2.545,1.678c1.132,0,1.823-0.397,1.823-1.016
			c0-0.632-0.411-0.927-2.162-1.397c-1.604-0.44-3.971-1.044-3.971-3.574c0-2.089,1.971-3.574,4.471-3.574
			c2.28,0,3.736,1.206,4.369,2.574l-2.045,1.368c-0.515-0.941-1.383-1.471-2.354-1.471c-0.912,0-1.647,0.44-1.647,1.059
			c0,0.588,0.427,0.854,2.177,1.324c1.604,0.411,3.957,1,3.957,3.545c0,2.206-1.927,3.633-4.633,3.633
			C213.567,102.18,211.949,101.062,211.214,99.459z"/>
		<path fill="#D5D5D5" d="M225.1,101.974h-2.736v-11.62h2.736V101.974z"/>
		<path fill="#D5D5D5" d="M227.026,96.164c0-3.781,2.118-6.017,5.501-6.017s5.501,2.235,5.501,6.017c0,3.78-2.118,6.016-5.501,6.016
			S227.026,99.944,227.026,96.164z M235.234,96.164c0-2.207-1.045-3.457-2.707-3.457s-2.707,1.25-2.707,3.457
			c0,2.206,1.045,3.456,2.707,3.456S235.234,98.37,235.234,96.164z"/>
		<path fill="#D5D5D5" d="M239.955,101.974v-11.62h2.368l4.707,6.692h0.088v-6.692h2.619v11.62h-2.222l-4.854-6.692h-0.104v6.692
			H239.955z"/>
		<path fill="#D5D5D5" d="M259.827,101.974l-0.838-2.397h-4.09l-0.838,2.397h-2.897l4.383-11.62h2.795l4.384,11.62H259.827z
			 M255.812,97.017h2.266l-1.089-3.104H256.9L255.812,97.017z"/>
		<path fill="#D5D5D5" d="M266.888,99.503h5.324v2.471h-8.061v-11.62h2.736V99.503z"/>
		<path fill="#D5D5D5" d="M281.375,101.974v-9.061h-3.191v-2.56h9.119v2.56h-3.191v9.061H281.375z"/>
		<path fill="#D5D5D5" d="M291.761,101.974h-2.736v-11.62h2.736V101.974z"/>
		<path fill="#D5D5D5" d="M296.747,99.503h5.324v2.471h-8.061v-11.62h2.736V99.503z"/>
		<path fill="#D5D5D5" d="M306.528,99.503h5.339v2.471h-8.075v-11.62h7.899v2.471h-5.163v2.03h4.883v2.472h-4.883V99.503z"/>
		<path fill="#D5D5D5" d="M317.662,90.354h2.854l1.853,7.723h0.089l2.147-7.723h2.941l2.295,7.723h0.089l1.853-7.723h2.854
			l-3.236,11.62h-2.795l-2.486-7.634h-0.088l-2.485,7.634h-2.795L317.662,90.354z"/>
		<path fill="#D5D5D5" d="M335.505,96.164c0-3.781,2.118-6.017,5.501-6.017s5.501,2.235,5.501,6.017c0,3.78-2.118,6.016-5.501,6.016
			S335.505,99.944,335.505,96.164z M343.713,96.164c0-2.207-1.045-3.457-2.707-3.457s-2.707,1.25-2.707,3.457
			c0,2.206,1.045,3.456,2.707,3.456S343.713,98.37,343.713,96.164z"/>
		<path fill="#D5D5D5" d="M354.773,101.974l-2.03-3.897h-1.573v3.897h-2.736v-11.62h4.692c2.618,0,4.251,1.441,4.251,3.854
			c0,1.633-0.706,2.81-1.927,3.413l2.53,4.354H354.773z M351.17,92.824v2.766h1.559c1.133,0,1.854-0.441,1.854-1.383
			s-0.721-1.383-1.854-1.383H351.17z"/>
		<path fill="#D5D5D5" d="M366.525,101.974l-3.074-5.045l-1.338,1.397v3.647h-2.736v-11.62h2.736v4.648l4.266-4.648h3.397
			l-4.324,4.501l4.501,7.119H366.525z"/>
		<path fill="#D5D5D5" d="M379.013,101.974v-9.061h-3.191v-2.56h9.12v2.56h-3.192v9.061H379.013z"/>
		<path fill="#D5D5D5" d="M389.398,99.503h5.339v2.471h-8.075v-11.62h7.899v2.471h-5.163v2.03h4.883v2.472h-4.883V99.503z"/>
		<path fill="#D5D5D5" d="M404.415,101.974l-0.838-2.397h-4.09l-0.838,2.397h-2.897l4.383-11.62h2.795l4.384,11.62H404.415z
			 M400.399,97.017h2.266l-1.089-3.104h-0.088L400.399,97.017z"/>
		<path fill="#D5D5D5" d="M408.739,101.974v-11.62h2.427l3.736,5.751h0.089l3.735-5.751h2.428v11.62h-2.648v-6.678h-0.088
			l-2.441,3.722h-2.06l-2.441-3.663h-0.089v6.619H408.739z"/>
	</g>
	<polygon fill-rule="evenodd" clip-rule="evenodd" fill="#D5D5D5" points="344.02,81.628 331.277,81.628 333.024,74.044 
		345.631,74.044 	"/>
	<polygon fill-rule="evenodd" clip-rule="evenodd" fill="#D5D5D5" points="367.444,81.587 349.67,81.587 354.701,74.006 
		369.059,74.006 	"/>
	<polygon fill="#D5D5D5" points="330.552,68.302 327.566,68.302 327.566,66.822 322.043,66.822 321.784,68.302 305.557,68.302 
		304.441,73.052 320.924,73.052 319.68,76.948 316.774,76.948 315.887,81.632 327.566,81.632 327.566,73.052 330.552,73.052 	"/>
	<path fill-rule="evenodd" clip-rule="evenodd" fill="#D5D5D5" d="M304.969,49.616c0.008-0.711,0.028-7.683,0.015-7.683
		c-4.598,0-9.097,0-13.642,0c-0.387,2.554-0.758,5.33-1.137,7.845c1.271,0,1.498-0.028,2.509,0
		c-1.677,4.612-3.304,8.955-4.977,13.547c0.996,0.075,1.76,0.133,2.639,0.202c-0.701,5.508-1.375,10.826-2.065,16.247
		c5.323,0,10.463,0,15.987,0c-0.149,0,0.166-23.359,0.166-25.735c-1.74,0-3.399,0-5.04,0c-0.17,0,1.109-4.03,1.152-4.296
		C302.084,49.665,303.245,49.718,304.969,49.616z M298.438,62.074L298.438,62.074c-0.148,3.281-0.299,6.566-0.456,9.926
		c-0.705,0-1.254,0-2,0c0.321-3.302,0.605-6.484,0.979-9.662h-0.002l0.011-0.096c0.009-0.053,0.012-0.109,0.021-0.162
		c0-0.004,0.002-0.007,0.005-0.012l0.152-1.217h1.386L298.438,62.074z"/>
	<path fill-rule="evenodd" clip-rule="evenodd" fill="#D5D5D5" d="M260.791,49.607c0.005-0.713,0.027-7.674,0.011-7.674
		c-4.546,0-9.003,0-13.501,0c-0.383,2.549-0.75,5.321-1.125,7.832c1.258,0.001,1.48-0.027,2.481,0
		c-1.662,4.605-3.268,8.942-4.926,13.527c0.986,0.075,1.743,0.133,2.612,0.198c-0.691,5.502-1.363,10.81-2.044,16.225
		c5.27,0,10.354,0,15.825,0c-0.146,0,0.166-23.326,0.166-25.693c-1.724,0-3.366,0-4.991,0c-0.166,0,1.101-4.026,1.142-4.294
		C257.935,49.652,259.086,49.707,260.791,49.607z M254.326,62.041L254.326,62.041c-0.15,3.277-0.301,6.558-0.455,9.913
		c-0.695,0-1.241,0-1.978,0c0.318-3.295,0.601-6.479,0.968-9.647h-0.002l0.015-0.094c0.006-0.054,0.009-0.112,0.018-0.165
		c0-0.006,0.002-0.01,0.006-0.015l0.15-1.209h1.373L254.326,62.041z"/>
	<polygon fill="#D5D5D5" points="306.255,74.053 312.324,74.053 314.763,81.628 308.564,81.628 	"/>
	<path fill="#D5D5D5" d="M330.198,65.445c-0.169-0.845-0.325-1.645-0.5-2.449c-0.016-0.079-0.038-0.152-0.063-0.223l-2.685-1.024
		h2.562l-0.048-0.833c-0.109-1.994-0.281-4.033-0.448-6.006c-0.198-2.36-0.401-4.802-0.508-7.199l-0.037-0.766h-8.253v-0.845h9.307
		v-4.932h-9.419l-0.346-1.766h-4.806l-0.33,1.85h-8.247l-0.152,0.604c-0.165,0.671-0.354,1.263-0.53,1.838
		c-0.171,0.531-0.325,1.032-0.437,1.503l-0.234,0.985h9.545v0.846h-7.94l-0.055,0.744c-0.191,2.845-0.437,5.101-0.696,7.488
		c-0.19,1.736-0.383,3.535-0.577,5.712l-0.08,0.87h9.355v0.86h-8.942l-0.133,0.634c-0.301,1.454-0.464,2.143-0.74,3.231l-0.253,1
		h26.109l-0.188-0.96C330.346,66.208,330.273,65.826,330.198,65.445z M314.575,57.079h-4.074v-0.604h4.074V57.079z M314.592,52.156
		h-4.078v-0.609h4.078V52.156z M320.155,51.529h4.051v0.618h-4.051V51.529z M320.121,56.545h4.024v0.539h-4.024V56.545z
		 M324.177,62.573h-4.026V61.76h4.064L324.177,62.573z"/>
	<path fill-rule="evenodd" clip-rule="evenodd" fill="#D5D5D5" d="M355.602,48.608c4.895-0.042,13.467-0.118,13.467-0.058
		c0-2.642,0-5.099,0-7.551c-11.157,0-22.167,0-33.28,0c-0.397,2.504-0.784,4.938-1.214,7.621c4.397,0,8.515,0,12.6,0.004
		c0-0.013,4.856,0.004,5.235,0.004S353.998,48.621,355.602,48.608z"/>
	<path fill="#D5D5D5" d="M389.397,45.832c0.354-2.108,0.707-4.213,1.071-6.384c-4.936,0-9.603,0-14.446,0
		c-0.897,13.949-1.792,28.146-2.702,42.197l5.575,0.017c0.013,0.004,0.021,0.004,0.034,0.004c0.035,0,0.066-0.004,0.102,0
		l1.439,0.005l0.561-10.025c0.47-7.434,0.962-14.867,1.423-22.302v0.005l0.261-2.833l0.045-0.409h1.954l-0.485,2.623
		c-0.553,3.171-1.102,6.332-1.665,9.581h1.262l-1.772,14.604v-0.002c-0.077,0.637-0.16,1.27-0.241,1.913c1.783,0,3.411,0,5.149,0
		c0.644-6.663,1.274-13.208,1.896-19.754c0.006-0.039,0-0.076-0.004-0.109h-1.069l0.888-4.862
		C388.915,48.676,389.154,47.254,389.397,45.832z"/>
	<path fill="#D5D5D5" d="M403.022,44.813c-0.578-1.905-1.098-3.612-1.613-5.305c-1.856,0-3.683,0-5.523,0c-1.414,0-2.84,0-4.296,0
		h-0.055l1.608,5.305H403.022z"/>
	<path fill="#D5D5D5" d="M407.822,44.813c0.58-1.905,1.101-3.612,1.613-5.305c1.858,0,3.686,0,5.525,0c1.412,0,2.838,0,4.293,0
		h0.055l-1.606,5.305H407.822z"/>
	<path fill-rule="evenodd" clip-rule="evenodd" fill="#D5D5D5" d="M391.271,46.105c-0.442,2.081-0.861,4.063-1.34,6.331
		c2.198,0,4.04,0,5.881,0l-5.689,3.094l-0.115,1.674c-0.154,1.567-0.223,3.191-0.348,5.049c3.945-1.921,7.591-3.702,11.216-5.469
		l1.37-0.697v1.927l-1.243,0.584c-2.042,0.958-4.07,1.938-6.097,2.932l0,0l-0.295,0.148c-1.38,0.675-2.754,1.36-4.128,2.051
		c-0.076,0.04-0.158,0.083-0.236,0.132l-1.233,0.614l-0.603,6.592l-0.003,0.028l-0.01,0.111l0.414-0.2
		c4.241-2.021,8.028-3.826,12.029-5.732l0.24-0.118l1.164-0.565v1.827l-1.188,0.605l-0.021,0.008l-0.964,0.487l-0.192,0.09
		c-1.977,1.02-3.97,2.01-5.96,3.006l-5.729,2.749l-0.656,6.884c4.994-2.448,9.771-4.787,14.712-7.207v3.112
		c-0.861,0.088-1.556,0.162-2.28,0.237c-0.456,1.76-0.89,3.44-1.348,5.214c4.099,0,8.018,0,12.122,0
		c0.069,0,0.036-20.239,0.063-22.008c0.002-0.102,0.002-0.199,0.002-0.304l0.066-4.091c0-0.005-0.629-0.922-0.629-0.929
		l-1.384-1.881h0.504c1.092,0,2.166,0,3.225,0c3.012,0,5.896,0,8.833,0c0-2.231,0-4.256,0-6.288
		C411.294,46.105,401.324,46.105,391.271,46.105z"/>
	<polygon fill-rule="evenodd" clip-rule="evenodd" fill="#D5D5D5" points="414.194,55.204 421.648,55.214 419.309,64.842 
		421.967,80.115 414.326,80.115 411.75,64.842 	"/>
	<path fill-rule="evenodd" clip-rule="evenodd" fill="#D5D5D5" d="M283.972,43.745h-0.005c0.336-1.465,0.65-2.83,0.985-4.28
		c-2.762,0-5.409,0-8.081,0c-0.374,1.497-0.725,2.905-1.068,4.28c-0.949,0-1.757,0-2.582,0c-0.287-1.489-0.556-2.868-0.821-4.245
		c-2.719,0-5.353,0-8.03,0c0.207,1.503,0.392,2.868,0.577,4.245h-1.945l-0.877,4.732c-0.135,0.661-0.266,1.334-0.402,2.029
		c0.006,0,0.015,0,0.021,0l-0.021,0.105h3.318c-1.156,4.664-2.266,9.138-3.406,13.738c1.016,0.064,1.831,0.115,2.829,0.177
		c-1.341,5.768-2.644,11.395-3.967,17.101c3.778,0,7.507,0,11.218,0c1.287,0,2.57,0,3.849,0c3.253,0,6.489,0,9.729,0
		c0-1.779,0-3.519,0-5.229c0-1.817,0-3.606,0-5.391c-1.243,0-2.315,0-3.438,0v3.884v0.473h-0.578h-0.638l0.361-2.886l1.237-8.216
		h2.649c0-2.263,0-4.534,0-6.915c-1.215,0-2.307,0-3.547,0c0.615-2.334,1.195-4.53,1.777-6.736h2.49V50.36c0-2.174,0-4.255,0-6.383
		v-0.232H283.972z M273.646,80.18h-0.353c0-3.003,0-6.003,0-9.102c-1.239,0-2.309,0-3.575,0c0,1.039,0,2.06,0,3.14
		c0,0.288,0,0.579,0,0.878v0.272h-0.031h-0.553h-1.174l0.178-0.748c0-0.005,0-0.013,0-0.016c0.084-0.349,0.166-0.699,0.248-1.044
		l0.148-0.629l0,0c0.496-2.104,1-4.207,1.485-6.315l0.489-2.177h5.558C275.236,69.829,274.439,75.005,273.646,80.18z
		 M273.536,62.806h-0.446c0-1.759,0-3.522,0-5.398c-1.097,0-2.074,0-3.325,0c0.329-1.178,0.64-2.307,0.949-3.409h-0.002l0.913-3.387
		h0.352h3.945h0.701C275.564,54.784,274.549,58.796,273.536,62.806z"/>
	<polygon fill="#B3D81C" points="360.361,61.115 353.09,61.115 352.698,61.115 354.371,57.908 358.547,50.018 357.618,50.018 
		347.705,50.018 347.113,50.018 339.951,69.245 343.789,69.245 343.783,69.242 348.368,69.251 345.361,82.595 345.361,82.595 
		344.827,84.919 345.68,84.919 347.723,81.805 360.137,62.964 361.378,61.115 	"/>
	<polygon fill="#D5D5D5" points="145.248,81.684 153.857,81.684 156.367,67.442 173.638,67.442 175.282,59.065 157.587,59.065 
		159.214,49.055 177.087,49.055 178.637,41.154 152.165,41.154 	"/>
	<polygon fill="#D5D5D5" points="173.856,81.684 182.401,81.684 187.485,53.767 189.773,67.466 194.349,67.466 200.807,53.967 
		197.053,81.684 205.39,81.684 211.001,41.033 198.163,41.154 194.349,49.036 192.977,41.033 181.253,41.033 	"/>
	<path fill="#D5D5D5" d="M241.783,48.933l-6.461-7.778l-21.409-0.122l-5.023,36.482l-0.582,4.169h23.619l5.928-4.97L241.783,48.933z
		 M230.69,71.679l-3.545,2.545l-9.962-0.084l3.554-25.423h10.068l2.69,3.367L230.69,71.679z"/>
	<polyline fill="#D6002F" points="342.833,61.505 339.951,69.247 343.089,69.247 348.368,69.247 342.833,61.505 	"/>
	<polygon fill-rule="evenodd" clip-rule="evenodd" fill="#D5D5D5" points="344.02,81.628 331.277,81.628 333.024,74.044 
		345.631,74.044 	"/>
	<polygon fill-rule="evenodd" clip-rule="evenodd" fill="#D5D5D5" points="367.444,81.587 349.67,81.587 354.701,74.006 
		369.059,74.006 	"/>
	<path fill-rule="evenodd" clip-rule="evenodd" fill="#D5D5D5" d="M355.602,48.608c4.895-0.042,13.467-0.118,13.467-0.058
		c0-2.642,0-5.099,0-7.551c-11.157,0-22.167,0-33.28,0c-0.397,2.504-0.784,4.938-1.214,7.621c4.397,0,8.515,0,12.6,0.004
		c0-0.013,4.856,0.004,5.235,0.004S353.998,48.621,355.602,48.608z"/>
	<polygon fill="#B3D81C" points="360.361,61.115 353.09,61.115 352.698,61.115 354.371,57.908 358.547,50.018 357.618,50.018 
		347.705,50.018 347.113,50.018 339.951,69.245 343.789,69.245 343.783,69.242 348.368,69.251 345.361,82.595 345.361,82.595 
		344.827,84.919 345.68,84.919 347.723,81.805 360.137,62.964 361.378,61.115 	"/>
	<polyline fill="#D6002F" points="342.833,61.505 339.951,69.247 343.089,69.247 348.368,69.247 342.833,61.505 	"/>
	<g>
		<polygon fill="#D5D5D5" points="85.733,58.364 75.784,58.364 75.438,58.364 68.165,58.364 60.893,58.364 60.543,58.364 
			50.597,58.364 42.493,90.595 52.788,90.595 58.488,67.909 68.158,79.288 68.165,79.281 68.169,79.288 77.84,67.909 83.542,90.595 
			93.838,90.595 		"/>
		<polygon fill="#D5D5D5" points="50.597,58.39 31.168,58.445 33.947,49.374 52.785,49.374 		"/>
		<polygon fill="#D5D5D5" points="46.621,75.725 27.503,75.725 29.561,66.822 48.663,66.822 		"/>
		<polygon fill="#D5D5D5" points="83.411,49.377 102.552,49.374 128.125,75.336 112.825,90.595 91.82,90.595 89.83,81.401 
			106.063,81.313 112.875,74.493 97.337,58.39 85.733,58.39 		"/>
		<polygon fill="#AFD500" points="107.95,92.104 67.782,107.596 27.816,92.25 24.45,92.25 67.758,135.563 111.319,92.104 		"/>
		<polygon fill="#D5D5D5" points="68.042,0 22.515,45.211 22.63,47.594 32.446,47.594 68.042,11.743 129.406,74.028 135.635,67.813 
					"/>
		<polygon fill="#D5D5D5" points="24.45,49.374 15.425,83.06 24.45,92.25 35.59,49.374 		"/>
		<polygon fill="#D5D5D5" points="13.547,67.964 19.038,61.76 23.156,46.364 22.515,45.211 0,67.813 13.769,81.4 16.447,70.853 		
			"/>
		<linearGradient id="SVGID_1_" gradientUnits="userSpaceOnUse" x1="55.3037" y1="15.231" x2="71.4523" y2="5.9076">
			<stop  offset="0" style="stop-color:#1A1C1E;stop-opacity:0"/>
			<stop  offset="1" style="stop-color:#393C3D"/>
		</linearGradient>
		<polygon fill="url(#SVGID_1_)" points="68.042,0 68.042,11.743 58.714,21.137 54.424,13.344 		"/>
		<linearGradient id="SVGID_2_" gradientUnits="userSpaceOnUse" x1="58.4878" y1="68.8521" x2="68.1733" y2="68.8521">
			<stop  offset="0" style="stop-color:#1A1C1E;stop-opacity:0"/>
			<stop  offset="1" style="stop-color:#36383A"/>
		</linearGradient>
		<polygon fill="url(#SVGID_2_)" points="68.173,79.314 68.173,58.445 59.11,58.39 58.488,67.909 		"/>
		<linearGradient id="SVGID_3_" gradientUnits="userSpaceOnUse" x1="46.7915" y1="100.5996" x2="74.7685" y2="128.5766">
			<stop  offset="0" style="stop-color:#A8CB1B;stop-opacity:0"/>
			<stop  offset="1" style="stop-color:#77861B"/>
		</linearGradient>
		<polygon fill="url(#SVGID_3_)" points="67.782,107.596 67.782,135.563 39.795,107.596 48.663,100.253 		"/>
		<polygon fill="#D6002F" points="68.161,65.175 81.586,49.374 80.662,49.374 68.161,49.374 68.158,49.374 55.661,49.374 
			54.736,49.374 68.158,65.175 68.158,65.178 68.161,65.175 68.161,65.178 		"/>
		
			<linearGradient id="SVGID_4_" gradientUnits="userSpaceOnUse" x1="-374.0449" y1="-85.9658" x2="-388.6525" y2="-71.3583" gradientTransform="matrix(1 0 0 -1 446.1787 -24.7734)">
			<stop  offset="0" style="stop-color:#E14642"/>
			<stop  offset="0.7725" style="stop-color:#D6002F;stop-opacity:0"/>
		</linearGradient>
		<polygon fill="url(#SVGID_4_)" points="54.736,49.374 68.285,49.374 68.146,65.178 		"/>
	</g>
</g>
</svg>
