<?xml version="1.0" encoding="utf-8"?>
<!-- Generator: Adobe Illustrator 16.0.0, SVG Export Plug-In . SVG Version: 6.00 Build 0)  -->
<!DOCTYPE svg PUBLIC "-//W3C//DTD SVG 1.1//EN" "http://www.w3.org/Graphics/SVG/1.1/DTD/svg11.dtd">
<svg version="1.1" id="圖層_1" xmlns="http://www.w3.org/2000/svg" xmlns:xlink="http://www.w3.org/1999/xlink" x="0px" y="0px"
	 width="376px" height="120px" viewBox="0 0 376 120" enable-background="new 0 0 376 120" xml:space="preserve">
<g>
	<path fill="#1D1E20" d="M136.672,80.557c2.374,0,3.799,1.322,3.799,3.543c0,2.207-1.373,3.527-3.67,3.527h-1.861v3.068h-2.387
		V80.557H136.672z M136.313,85.473c1.104,0,1.72-0.488,1.72-1.373c0-0.887-0.616-1.387-1.72-1.387h-1.373v2.76H136.313z"/>
	<path fill="#1D1E20" d="M147.671,90.695l-1.771-3.4h-1.373v3.4h-2.387V80.557h4.094c2.284,0,3.709,1.258,3.709,3.363
		c0,1.424-0.616,2.449-1.682,2.977l2.207,3.799H147.671z M144.526,82.713v2.412h1.36c0.988,0,1.617-0.385,1.617-1.205
		c0-0.822-0.629-1.207-1.617-1.207H144.526z"/>
	<path fill="#1D1E20" d="M151.33,85.625c0-3.297,1.848-5.248,4.8-5.248c2.951,0,4.799,1.951,4.799,5.248
		c0,3.299-1.848,5.25-4.799,5.25C153.178,90.875,151.33,88.924,151.33,85.625z M158.49,85.625c0-1.924-0.911-3.016-2.36-3.016
		c-1.45,0-2.361,1.092-2.361,3.016c0,1.926,0.911,3.016,2.361,3.016C157.579,88.641,158.49,87.551,158.49,85.625z"/>
	<path fill="#1D1E20" d="M164.998,90.695h-2.387V80.557h6.788v2.232h-4.401v2.016h4.094v2.232h-4.094V90.695z"/>
	<path fill="#1D1E20" d="M173.392,88.539h4.658v2.156h-7.045V80.557h6.892v2.156h-4.505v1.771h4.261v2.154h-4.261V88.539z"/>
	<path fill="#1D1E20" d="M179.104,88.5l1.86-1.244c0.514,1.039,1.297,1.463,2.221,1.463c0.988,0,1.591-0.348,1.591-0.887
		c0-0.551-0.359-0.807-1.887-1.219c-1.398-0.385-3.465-0.91-3.465-3.117c0-1.822,1.72-3.119,3.901-3.119
		c1.989,0,3.26,1.053,3.812,2.246l-1.784,1.193c-0.448-0.822-1.206-1.283-2.053-1.283c-0.796,0-1.438,0.385-1.438,0.924
		c0,0.514,0.372,0.744,1.899,1.154c1.398,0.359,3.452,0.873,3.452,3.094c0,1.924-1.682,3.17-4.042,3.17
		C181.156,90.875,179.745,89.898,179.104,88.5z"/>
	<path fill="#1D1E20" d="M188.28,88.5l1.86-1.244c0.514,1.039,1.297,1.463,2.221,1.463c0.987,0,1.591-0.348,1.591-0.887
		c0-0.551-0.359-0.807-1.887-1.219c-1.398-0.385-3.465-0.91-3.465-3.117c0-1.822,1.72-3.119,3.901-3.119
		c1.989,0,3.26,1.053,3.812,2.246l-1.784,1.193c-0.448-0.822-1.206-1.283-2.053-1.283c-0.796,0-1.438,0.385-1.438,0.924
		c0,0.514,0.372,0.744,1.899,1.154c1.398,0.359,3.452,0.873,3.452,3.094c0,1.924-1.682,3.17-4.042,3.17
		C190.333,90.875,188.922,89.898,188.28,88.5z"/>
	<path fill="#1D1E20" d="M200.396,90.695h-2.387V80.557h2.387V90.695z"/>
	<path fill="#1D1E20" d="M202.077,85.625c0-3.297,1.848-5.248,4.799-5.248c2.952,0,4.8,1.951,4.8,5.248c0,3.299-1.848,5.25-4.8,5.25
		C203.925,90.875,202.077,88.924,202.077,85.625z M209.237,85.625c0-1.924-0.911-3.016-2.361-3.016c-1.449,0-2.36,1.092-2.36,3.016
		c0,1.926,0.911,3.016,2.36,3.016C208.326,88.641,209.237,87.551,209.237,85.625z"/>
	<path fill="#1D1E20" d="M213.358,90.695V80.557h2.066l4.106,5.84h0.076v-5.84h2.285v10.139h-1.938l-4.234-5.84h-0.09v5.84H213.358z
		"/>
	<path fill="#1D1E20" d="M230.697,90.695l-0.731-2.092h-3.567l-0.731,2.092h-2.528l3.824-10.139h2.438l3.824,10.139H230.697z
		 M227.194,86.369h1.976l-0.949-2.707h-0.077L227.194,86.369z"/>
	<path fill="#1D1E20" d="M236.858,88.539h4.646v2.156h-7.032V80.557h2.387V88.539z"/>
	<path fill="#1D1E20" d="M249.5,90.695v-7.906h-2.784v-2.232h7.956v2.232h-2.784v7.906H249.5z"/>
	<path fill="#1D1E20" d="M258.562,90.695h-2.387V80.557h2.387V90.695z"/>
	<path fill="#1D1E20" d="M262.912,88.539h4.646v2.156h-7.032V80.557h2.387V88.539z"/>
	<path fill="#1D1E20" d="M271.447,88.539h4.658v2.156h-7.045V80.557h6.892v2.156h-4.505v1.771h4.261v2.154h-4.261V88.539z"/>
	<path fill="#1D1E20" d="M281.163,80.557h2.489l1.617,6.738h0.077l1.873-6.738h2.567l2.002,6.738h0.076l1.617-6.738h2.489
		l-2.823,10.139h-2.438l-2.169-6.66h-0.077l-2.169,6.66h-2.438L281.163,80.557z"/>
	<path fill="#1D1E20" d="M296.731,85.625c0-3.297,1.848-5.248,4.799-5.248c2.952,0,4.8,1.951,4.8,5.248c0,3.299-1.848,5.25-4.8,5.25
		C298.579,90.875,296.731,88.924,296.731,85.625z M303.892,85.625c0-1.924-0.911-3.016-2.361-3.016c-1.449,0-2.36,1.092-2.36,3.016
		c0,1.926,0.911,3.016,2.36,3.016C302.98,88.641,303.892,87.551,303.892,85.625z"/>
	<path fill="#1D1E20" d="M313.544,90.695l-1.771-3.4h-1.373v3.4h-2.387V80.557h4.094c2.284,0,3.709,1.258,3.709,3.363
		c0,1.424-0.616,2.449-1.682,2.977l2.207,3.799H313.544z M310.399,82.713v2.412h1.36c0.988,0,1.617-0.385,1.617-1.205
		c0-0.822-0.629-1.207-1.617-1.207H310.399z"/>
	<path fill="#1D1E20" d="M323.799,90.695l-2.682-4.402l-1.168,1.219v3.184h-2.387V80.557h2.387v4.055l3.722-4.055h2.964
		l-3.772,3.928l3.927,6.211H323.799z"/>
	<path fill="#1D1E20" d="M334.695,90.695v-7.906h-2.784v-2.232h7.956v2.232h-2.784v7.906H334.695z"/>
	<path fill="#1D1E20" d="M343.757,88.539h4.658v2.156h-7.045V80.557h6.892v2.156h-4.505v1.771h4.261v2.154h-4.261V88.539z"/>
	<path fill="#1D1E20" d="M356.86,90.695l-0.731-2.092h-3.567l-0.731,2.092h-2.528l3.824-10.139h2.438l3.824,10.139H356.86z
		 M353.357,86.369h1.976l-0.949-2.707h-0.077L353.357,86.369z"/>
	<path fill="#1D1E20" d="M360.635,90.695V80.557h2.117l3.26,5.018h0.077l3.259-5.018h2.118v10.139h-2.311v-5.826h-0.076
		l-2.131,3.246h-1.797l-2.13-3.195h-0.077v5.775H360.635z"/>
</g>
<polygon fill-rule="evenodd" clip-rule="evenodd" fill="#1D1E20" points="304.163,72.937 293.044,72.937 294.568,66.321 
	305.569,66.321 "/>
<polygon fill-rule="evenodd" clip-rule="evenodd" fill="#1D1E20" points="324.604,72.903 309.095,72.903 313.483,66.288 
	326.011,66.288 "/>
<polygon fill="#1D1E20" points="292.411,61.312 289.807,61.312 289.807,60.02 284.987,60.02 284.762,61.312 270.602,61.312 
	269.629,65.454 284.012,65.454 282.925,68.855 280.39,68.855 279.614,72.94 289.807,72.94 289.807,65.454 292.411,65.454 "/>
<path fill-rule="evenodd" clip-rule="evenodd" fill="#1D1E20" d="M270.089,45.007c0.006-0.621,0.024-6.707,0.012-6.707
	c-4.011,0-7.936,0-11.902,0c-0.338,2.23-0.661,4.654-0.992,6.848c1.108,0,1.309-0.024,2.189,0
	c-1.464,4.025-2.883,7.813-4.343,11.822c0.871,0.064,1.535,0.116,2.304,0.174c-0.612,4.807-1.201,9.446-1.803,14.178
	c4.646,0,9.129,0,13.95,0c-0.13,0,0.145-20.385,0.145-22.457c-1.519,0-2.967,0-4.399,0c-0.147,0,0.971-3.516,1.007-3.75
	C267.57,45.048,268.585,45.095,270.089,45.007z M264.391,55.875L264.391,55.875c-0.131,2.865-0.264,5.731-0.399,8.664
	c-0.615,0-1.095,0-1.745,0c0.28-2.882,0.53-5.661,0.854-8.431H263.1l0.01-0.084c0.007-0.048,0.011-0.096,0.018-0.145
	c0-0.004,0.002-0.006,0.004-0.01l0.135-1.061h1.209L264.391,55.875z"/>
<path fill-rule="evenodd" clip-rule="evenodd" fill="#1D1E20" d="M231.541,44.997c0.004-0.621,0.023-6.697,0.01-6.697
	c-3.969,0-7.855,0-11.781,0c-0.334,2.227-0.654,4.646-0.982,6.836c1.097,0.002,1.293-0.024,2.167,0
	c-1.451,4.018-2.854,7.801-4.299,11.803c0.86,0.066,1.521,0.117,2.279,0.175c-0.604,4.8-1.188,9.431-1.782,14.155
	c4.598,0,9.034,0,13.807,0c-0.125,0,0.144-20.354,0.144-22.421c-1.503,0-2.935,0-4.354,0c-0.146,0,0.962-3.511,0.998-3.745
	C229.048,45.038,230.051,45.084,231.541,44.997z M225.9,55.847L225.9,55.847c-0.132,2.861-0.263,5.723-0.398,8.65
	c-0.606,0-1.083,0-1.726,0c0.277-2.877,0.524-5.653,0.846-8.418h-0.002l0.012-0.084c0.005-0.047,0.009-0.097,0.016-0.143
	c0-0.006,0.003-0.008,0.005-0.012l0.131-1.057h1.199L225.9,55.847z"/>
<polygon fill="#1D1E20" points="271.212,66.328 276.507,66.328 278.635,72.937 273.227,72.937 "/>
<path fill="#1D1E20" d="M292.102,58.819c-0.146-0.738-0.282-1.436-0.436-2.139c-0.014-0.067-0.031-0.133-0.054-0.193l-2.343-0.893
	h2.234l-0.041-0.729c-0.097-1.739-0.246-3.518-0.393-5.24c-0.173-2.061-0.352-4.19-0.442-6.281l-0.03-0.669h-7.203v-0.737h8.119
	v-4.303h-8.218l-0.302-1.542h-4.193l-0.289,1.616h-7.194l-0.133,0.527c-0.145,0.584-0.309,1.101-0.463,1.602
	c-0.148,0.462-0.284,0.9-0.381,1.312l-0.205,0.859h8.33v0.737h-6.929l-0.047,0.65c-0.168,2.482-0.383,4.451-0.608,6.533
	c-0.165,1.516-0.336,3.084-0.505,4.983l-0.069,0.76h8.163v0.749h-7.803l-0.117,0.555c-0.261,1.268-0.404,1.869-0.645,2.818
	l-0.222,0.871h22.784l-0.166-0.836C292.232,59.485,292.168,59.149,292.102,58.819z M278.472,51.519h-3.556v-0.525h3.556V51.519z
	 M278.485,47.224h-3.558v-0.531h3.558V47.224z M283.34,46.677h3.535v0.539h-3.535V46.677z M283.312,51.053h3.512v0.471h-3.512
	V51.053z M286.85,56.312h-3.514v-0.709h3.548L286.85,56.312z"/>
<path fill-rule="evenodd" clip-rule="evenodd" fill="#1D1E20" d="M314.27,44.126c4.269-0.035,11.748-0.102,11.748-0.05
	c0-2.306,0-4.448,0-6.591c-9.732,0-19.341,0-29.037,0c-0.348,2.187-0.685,4.311-1.059,6.652c3.837,0,7.431,0,10.994,0.004
	c0-0.012,4.235,0.004,4.567,0.004C311.814,44.146,312.869,44.138,314.27,44.126z"/>
<path fill="#1D1E20" d="M343.758,41.703c0.31-1.839,0.617-3.677,0.935-5.569c-4.306,0-8.378,0-12.603,0
	c-0.787,12.172-1.566,24.559-2.36,36.818l4.864,0.016c0.01,0.002,0.019,0.002,0.03,0.002c0.032,0.001,0.057-0.002,0.089,0
	l1.254,0.004l0.49-8.746c0.411-6.486,0.841-12.972,1.242-19.459v0.004l0.229-2.474l0.038-0.354h1.704l-0.423,2.288
	c-0.482,2.765-0.961,5.523-1.452,8.358h1.102l-1.548,12.742v-0.002c-0.069,0.557-0.139,1.111-0.21,1.672c1.556,0,2.975,0,4.492,0
	c0.563-5.814,1.114-11.526,1.658-17.238c0.003-0.032,0-0.064-0.006-0.096h-0.934l0.775-4.24
	C343.337,44.187,343.548,42.946,343.758,41.703z"/>
<path fill="#1D1E20" d="M355.646,40.816c-0.506-1.663-0.957-3.153-1.408-4.632c-1.619,0-3.213,0-4.817,0c-1.235,0-2.478,0-3.748,0
	h-0.05l1.404,4.632H355.646z"/>
<path fill="#1D1E20" d="M359.836,40.816c0.504-1.663,0.958-3.153,1.407-4.632c1.621,0,3.214,0,4.818,0c1.236,0,2.478,0,3.749,0
	h0.048l-1.404,4.632H359.836z"/>
<path fill-rule="evenodd" clip-rule="evenodd" fill="#1D1E20" d="M345.393,41.944c-0.384,1.814-0.75,3.545-1.168,5.523
	c1.919,0,3.524,0,5.131,0l-4.967,2.699l-0.099,1.461c-0.135,1.369-0.191,2.785-0.301,4.406c3.439-1.678,6.62-3.23,9.782-4.772
	l1.198-0.606v1.681l-1.085,0.508c-1.78,0.837-3.552,1.69-5.319,2.558l0,0l-0.259,0.129c-1.202,0.592-2.403,1.188-3.601,1.791
	c-0.065,0.034-0.138,0.072-0.208,0.115l-1.075,0.537l-0.525,5.751l-0.003,0.026l-0.007,0.094l0.36-0.173
	c3.7-1.763,7.004-3.339,10.496-5.001l0.209-0.102l1.017-0.494v1.596l-1.039,0.525l-0.017,0.008l-0.842,0.425l-0.167,0.08
	c-1.727,0.888-3.466,1.753-5.201,2.622l-4.998,2.4l-0.574,6.006c4.357-2.137,8.526-4.178,12.838-6.291v2.717
	c-0.751,0.076-1.355,0.141-1.991,0.207c-0.396,1.535-0.773,3.002-1.175,4.551c3.574,0,6.995,0,10.576,0
	c0.061,0,0.033-17.661,0.057-19.203c0.001-0.09,0.001-0.176,0.002-0.266l0.057-3.57c0-0.005-0.547-0.805-0.549-0.811l-1.206-1.641
	h0.438c0.957,0,1.893,0,2.815,0c2.629,0,5.146,0,7.706,0c0-1.947,0-3.716,0-5.486C362.864,41.944,354.165,41.944,345.393,41.944z"/>
<polygon fill-rule="evenodd" clip-rule="evenodd" fill="#1D1E20" points="365.394,49.882 371.899,49.89 369.858,58.29 
	372.175,71.618 365.508,71.618 363.261,58.29 "/>
<path fill-rule="evenodd" clip-rule="evenodd" fill="#1D1E20" d="M251.768,39.884c-0.001,0-0.006,0-0.007,0
	c0.295-1.277,0.568-2.471,0.861-3.736c-2.41,0-4.719,0-7.051,0c-0.326,1.307-0.633,2.537-0.932,3.736c-0.83,0-1.534,0-2.253,0
	c-0.252-1.301-0.485-2.504-0.717-3.706c-2.373,0-4.671,0-7.006,0c0.18,1.313,0.341,2.505,0.502,3.706h-1.697l-0.767,4.128
	c-0.115,0.577-0.229,1.165-0.349,1.771c0.006,0,0.013,0,0.018,0l-0.018,0.094h2.896c-1.01,4.068-1.979,7.974-2.975,11.986
	c0.887,0.057,1.598,0.102,2.47,0.156c-1.169,5.033-2.309,9.941-3.463,14.918c3.297,0,6.552,0,9.788,0c1.124,0,2.244,0,3.36,0
	c2.836,0,5.66,0,8.489,0c0-1.552,0-3.067,0-4.562c0-1.585,0-3.147,0-4.703c-1.086,0-2.021,0-3.001,0v3.389v0.413h-0.506h-0.554
	l0.315-2.52l1.079-7.168h2.311c0-1.975,0-3.957,0-6.034c-1.059,0-2.012,0-3.095,0c0.538-2.036,1.043-3.953,1.551-5.876h2.172v-0.219
	c0-1.897,0-3.713,0-5.57v-0.203H251.768z M242.757,71.675h-0.307c0-2.619,0-5.236,0-7.941c-1.081,0-2.014,0-3.12,0
	c0,0.907,0,1.799,0,2.741c0,0.251,0,0.504,0,0.765v0.238h-0.026h-0.482h-1.023l0.153-0.654c0-0.004,0-0.01,0-0.014
	c0.073-0.303,0.145-0.607,0.216-0.911l0.13-0.548h0.001c0.434-1.836,0.872-3.671,1.296-5.511l0.427-1.897h4.849
	C244.146,62.644,243.45,67.159,242.757,71.675z M242.659,56.515h-0.387c0-1.535,0-3.07,0-4.707c-0.956,0-1.81,0-2.901,0
	c0.286-1.029,0.558-2.016,0.827-2.979h-0.001l0.797-2.953h0.307h3.443h0.611C244.432,49.517,243.545,53.017,242.659,56.515z"/>
<polygon fill="#B3D81C" points="318.422,55.04 312.077,55.04 311.734,55.04 313.196,52.239 316.838,45.356 316.029,45.356 
	307.378,45.356 306.861,45.356 300.612,62.133 303.962,62.133 303.956,62.13 307.957,62.138 305.334,73.782 305.334,73.782 
	304.868,75.811 305.611,75.811 307.394,73.093 318.226,56.654 319.31,55.04 "/>
<polygon fill="#1D1E20" points="130.722,72.985 138.234,72.985 140.424,60.562 155.493,60.562 156.928,53.251 141.488,53.251 
	142.908,44.516 158.503,44.516 159.856,37.624 136.757,37.624 "/>
<polygon fill="#1D1E20" points="155.686,72.985 163.14,72.985 167.577,48.628 169.572,60.583 173.565,60.583 179.2,48.804 
	175.926,72.985 183.199,72.985 188.096,37.517 176.894,37.624 173.565,44.501 172.368,37.517 162.139,37.517 "/>
<path fill="#1D1E20" d="M214.955,44.41l-5.639-6.786l-18.681-0.107l-4.382,31.834l-0.508,3.635h20.61l5.172-4.334L214.955,44.41z
	 M205.276,64.258l-3.094,2.221l-8.692-0.075l3.101-22.181h8.786l2.348,2.937L205.276,64.258z"/>
<polyline fill="#D6002F" points="303.128,55.38 300.612,62.134 303.353,62.134 307.957,62.134 303.128,55.38 "/>
<polygon fill-rule="evenodd" clip-rule="evenodd" fill="#1D1E20" points="304.163,72.937 293.044,72.937 294.568,66.321 
	305.569,66.321 "/>
<polygon fill-rule="evenodd" clip-rule="evenodd" fill="#1D1E20" points="324.604,72.903 309.095,72.903 313.483,66.288 
	326.011,66.288 "/>
<path fill-rule="evenodd" clip-rule="evenodd" fill="#1D1E20" d="M314.27,44.126c4.269-0.035,11.748-0.102,11.748-0.05
	c0-2.306,0-4.448,0-6.591c-9.732,0-19.341,0-29.037,0c-0.348,2.187-0.685,4.311-1.059,6.652c3.837,0,7.431,0,10.994,0.004
	c0-0.012,4.235,0.004,4.567,0.004C311.814,44.146,312.869,44.138,314.27,44.126z"/>
<polygon fill="#B3D81C" points="318.422,55.04 312.077,55.04 311.734,55.04 313.196,52.239 316.838,45.356 316.029,45.356 
	307.378,45.356 306.861,45.356 300.612,62.133 303.962,62.133 303.956,62.13 307.957,62.138 305.334,73.782 305.334,73.782 
	304.868,75.811 305.611,75.811 307.394,73.093 318.226,56.654 319.31,55.04 "/>
<polyline fill="#D6002F" points="303.128,55.38 300.612,62.134 303.353,62.134 307.957,62.134 303.128,55.38 "/>
<g>
	<polygon fill="#1D1E20" points="78.791,52.64 70.11,52.64 69.807,52.64 63.462,52.64 57.116,52.64 56.812,52.64 48.132,52.64 
		41.06,80.764 50.044,80.764 55.018,60.969 63.456,70.897 63.462,70.891 63.467,70.897 71.903,60.969 76.879,80.764 85.863,80.764 	
		"/>
	<polygon fill="#1D1E20" points="48.132,52.662 31.181,52.709 33.605,44.796 50.042,44.796 	"/>
	<polygon fill="#1D1E20" points="44.663,67.786 27.981,67.786 29.777,60.02 46.445,60.02 	"/>
	<polygon fill="#1D1E20" points="76.765,44.799 93.467,44.796 115.78,67.447 102.429,80.764 84.104,80.764 82.366,72.74 
		96.53,72.665 102.474,66.713 88.917,52.662 78.791,52.662 	"/>
	<polygon fill="#AFD500" points="98.177,82.08 63.128,95.598 28.256,82.207 25.316,82.207 63.106,120 101.117,82.08 	"/>
	<polygon fill="#1D1E20" points="63.354,1.713 23.629,41.164 23.729,43.241 32.296,43.241 63.354,11.959 116.898,66.306 
		122.334,60.885 	"/>
	<polygon fill="#1D1E20" points="25.316,44.796 17.443,74.189 25.316,82.207 35.037,44.796 	"/>
	<polygon fill="#1D1E20" points="15.804,61.016 20.596,55.604 24.188,42.169 23.629,41.164 3.983,60.885 15.998,72.739 
		18.335,63.537 	"/>
	<linearGradient id="SVGID_1_" gradientUnits="userSpaceOnUse" x1="51.4717" y1="10.9346" x2="63.3545" y2="10.9346">
		<stop  offset="0" style="stop-color:#1B1D1F;stop-opacity:0"/>
		<stop  offset="1" style="stop-color:#393C3D"/>
	</linearGradient>
	<polygon fill="url(#SVGID_1_)" points="63.354,1.713 63.354,11.959 55.215,20.156 51.472,13.356 	"/>
	<linearGradient id="SVGID_2_" gradientUnits="userSpaceOnUse" x1="55.0176" y1="61.791" x2="63.4688" y2="61.791">
		<stop  offset="0" style="stop-color:#1B1D1F;stop-opacity:0"/>
		<stop  offset="1" style="stop-color:#36383A"/>
	</linearGradient>
	<polygon fill="url(#SVGID_2_)" points="63.469,70.92 63.469,52.709 55.562,52.662 55.018,60.969 	"/>
	<linearGradient id="SVGID_3_" gradientUnits="userSpaceOnUse" x1="44.812" y1="89.4932" x2="69.2245" y2="113.9056">
		<stop  offset="0" style="stop-color:#A7CB1C;stop-opacity:0"/>
		<stop  offset="1" style="stop-color:#CCEA1B"/>
	</linearGradient>
	<polygon fill="url(#SVGID_3_)" points="63.128,95.598 63.128,120 38.706,95.598 46.445,89.191 	"/>
	<polygon fill="#D6002F" points="63.459,58.582 75.172,44.796 74.365,44.796 63.459,44.796 63.456,44.796 52.551,44.796 
		51.744,44.796 63.456,58.582 63.456,58.586 63.458,58.584 63.459,58.586 	"/>
	
		<linearGradient id="SVGID_4_" gradientUnits="userSpaceOnUse" x1="-379.2559" y1="-95.8809" x2="-392.001" y2="-83.1357" gradientTransform="matrix(1 0 0 -1 446.1787 -40.7734)">
		<stop  offset="0" style="stop-color:#EF3643"/>
		<stop  offset="0.672" style="stop-color:#D6002F;stop-opacity:0"/>
	</linearGradient>
	<polygon fill="url(#SVGID_4_)" points="51.744,44.796 63.567,44.796 63.445,58.586 	"/>
</g>
</svg>
